<svg width="10" height="9" viewBox="0 0 10 9" fill="none" xmlns="http://www.w3.org/2000/svg">
<path d="M5.00001 0.142883C4.15238 0.142883 3.32378 0.394236 2.619 0.865157C1.91421 1.33608 1.3649 2.00541 1.04053 2.78853C0.716151 3.57164 0.63128 4.43335 0.796645 5.2647C0.96201 6.09604 1.37019 6.85969 1.96955 7.45905C2.56892 8.05842 3.33256 8.4666 4.16391 8.63196C4.99526 8.79733 5.85697 8.71246 6.64008 8.38808C7.42319 8.0637 8.09253 7.51439 8.56345 6.80961C9.03437 6.10483 9.28572 5.27623 9.28572 4.4286C9.28572 3.29195 8.83419 2.20187 8.03047 1.39814C7.22674 0.594413 6.13665 0.142883 5.00001 0.142883ZM5.00001 7.00002C4.49143 7.00002 3.99427 6.84921 3.5714 6.56666C3.14853 6.28411 2.81895 5.88251 2.62432 5.41264C2.42969 4.94277 2.37877 4.42574 2.47799 3.92694C2.57721 3.42813 2.82211 2.96994 3.18174 2.61032C3.54136 2.2507 3.99954 2.0058 4.49835 1.90658C4.99716 1.80736 5.51419 1.85828 5.98405 2.05291C6.45392 2.24753 6.85552 2.57712 7.13808 2.99999C7.42063 3.42286 7.57144 3.92002 7.57144 4.4286C7.57076 5.11037 7.29962 5.76403 6.81753 6.24612C6.33544 6.72821 5.68179 6.99934 5.00001 7.00002Z" fill="#FF9900"/>
</svg>
