<svg width="64" height="27" viewBox="0 0 64 27" fill="none" xmlns="http://www.w3.org/2000/svg">
<path d="M1.63007 6.08499C1.75007 6.06499 1.87007 6.04499 2.01007 6.00499C2.57007 5.86499 3.27007 5.72499 4.11007 5.58499C4.95007 5.44499 5.79007 5.38499 6.67007 5.40499C6.85007 5.40499 7.01007 5.32499 7.13007 5.14499C7.23007 4.96499 7.27007 4.76499 7.23007 4.54499C9.85007 3.98499 12.4901 3.52499 15.1901 3.14499C14.9101 3.56499 14.6301 3.94499 14.4101 4.26499C14.0901 4.70499 13.7701 5.14499 13.4701 5.58499C13.1701 6.02499 12.8501 6.54499 12.4701 7.16499C12.0701 7.80499 11.5901 8.68499 11.0101 9.80499C10.4501 10.945 9.85007 12.225 9.25007 13.645C8.63007 15.085 8.23007 16.545 8.01007 18.025C7.81007 19.525 7.93007 20.565 8.41007 21.165C8.87007 21.625 9.47007 21.785 10.1901 21.645C10.5701 21.525 10.7901 21.325 10.8301 21.005C10.8501 20.705 10.6901 20.485 10.3101 20.365C10.1901 20.345 10.0901 20.325 10.0101 20.325C9.89007 20.345 9.81007 20.325 9.73007 20.305C9.65007 20.265 9.59007 20.185 9.53007 20.065C9.45007 19.845 9.41007 19.565 9.39007 19.265C9.39007 18.965 9.41007 18.685 9.43007 18.445C9.77007 16.245 10.5701 13.905 11.8301 11.425C13.0701 8.94499 14.3901 6.76499 15.7501 4.84499C15.7901 4.80499 15.8301 4.74499 15.8701 4.68499L16.3901 3.96499C16.6101 3.68499 16.8101 3.42499 17.0301 3.20499C17.2301 2.96499 17.4101 2.84499 17.5501 2.82499L19.7901 2.54499C21.2701 2.36499 22.6501 2.20499 23.9501 2.10499C25.2501 2.00499 26.8301 1.96499 28.6901 2.00499C28.8301 2.00499 28.9501 2.00499 29.0901 2.02499C29.2101 2.04499 29.3501 2.06499 29.4701 2.06499C29.7701 2.04499 29.9901 1.96499 30.1501 1.78499C30.2901 1.60499 30.3501 1.42499 30.3101 1.22499C30.2701 1.00499 30.1101 0.864989 29.8301 0.764989C29.2301 0.604989 28.2901 0.544989 27.0101 0.604989C25.7301 0.644989 24.4101 0.724989 23.0101 0.864989C21.6301 0.984989 20.4901 1.10499 19.5901 1.20499C19.3101 1.24499 19.0901 1.26499 18.9101 1.28499C18.9301 0.804989 18.7901 0.524989 18.4701 0.444989C18.1701 0.364989 17.8701 0.404989 17.5701 0.584989C17.2701 0.784989 17.0701 0.984989 16.9101 1.18499C16.8101 1.30499 16.7101 1.40499 16.6101 1.48499C16.4901 1.58499 16.3701 1.62499 16.2101 1.64499C15.2501 1.78499 13.7301 2.00499 11.6501 2.36499C9.57007 2.70499 7.51007 3.10499 5.49007 3.56499C3.45007 4.00499 2.03007 4.46499 1.21007 4.92499C0.87007 5.18499 0.75007 5.44499 0.85007 5.74499C0.95007 6.02499 1.21007 6.14499 1.63007 6.08499ZM19.4277 14.645C19.7677 14.585 20.1877 14.365 20.6877 14.045C21.2077 13.705 21.6677 13.365 22.1077 13.025C22.5477 12.665 22.8077 12.445 22.9077 12.325C22.6877 12.805 22.3677 13.585 21.9477 14.605C21.5077 15.645 21.1677 16.525 20.9277 17.285C20.8277 17.605 20.9077 17.865 21.1277 18.045C21.3477 18.245 21.5877 18.305 21.8677 18.285C22.1477 18.245 22.3477 18.085 22.4277 17.785C22.8677 15.885 23.7477 13.665 25.0477 11.085C26.3477 8.50499 27.8877 5.84499 29.6677 3.08499C29.8877 2.70499 29.9077 2.38499 29.7277 2.12499C29.5477 1.86499 29.3077 1.72499 28.9877 1.70499C28.6677 1.68499 28.4077 1.82499 28.1877 2.14499C27.2277 3.86499 26.4877 5.18499 26.0077 6.10499C25.6477 6.80499 25.3077 7.40499 25.0077 7.92499C24.7077 8.44499 24.3477 8.98499 23.9477 9.54499C23.3477 10.385 22.4677 11.305 21.2677 12.265C20.5677 12.845 20.0477 13.165 19.7477 13.265C19.4277 13.365 19.2277 13.305 19.1877 13.085C19.1477 12.865 19.1677 12.585 19.2877 12.225C19.3877 11.845 19.5277 11.505 19.6677 11.165C19.8277 10.805 19.9477 10.565 20.0277 10.405C20.0877 10.285 20.0477 10.145 19.9477 10.005C19.8477 9.86499 19.7077 9.76499 19.5477 9.68499C19.3877 9.60499 19.2277 9.60499 19.1077 9.66499C18.9277 9.76499 18.7077 9.92499 18.4877 10.125C17.8477 9.50499 17.1477 9.52499 16.3877 10.205C14.2877 11.965 13.1077 13.385 12.8477 14.485C12.5877 15.585 12.8877 16.025 13.7277 15.785C14.0477 15.645 14.4677 15.365 14.9877 14.925C15.5277 14.485 16.0677 14.005 16.6077 13.525C17.1277 13.025 17.5677 12.645 17.9077 12.365C17.7277 13.265 17.8077 13.885 18.1277 14.245C18.4677 14.605 18.9077 14.745 19.4277 14.645ZM15.0077 13.245L15.2477 12.965C15.4077 12.785 15.6077 12.585 15.8277 12.365C16.0677 12.125 16.2677 11.945 16.4677 11.765C16.6677 11.605 16.8077 11.525 16.8877 11.525C16.8077 11.625 16.6677 11.765 16.4877 11.945C16.2877 12.145 16.0677 12.345 15.8477 12.545C15.6277 12.765 15.4277 12.925 15.2677 13.065C15.1077 13.205 15.0077 13.265 15.0077 13.245ZM34.1323 4.52499C34.5923 3.70499 35.0323 3.00499 35.4523 2.40499C35.6923 2.02499 35.8723 1.74499 35.9723 1.56499C36.1123 1.30499 36.0923 1.06499 35.9723 0.844989C35.8323 0.624989 35.6323 0.544989 35.3323 0.564989C35.0523 0.584989 34.7323 0.824989 34.3723 1.26499C30.9923 5.88499 28.2523 10.805 26.1923 16.025L26.1323 16.165C25.7923 16.965 25.4523 17.865 25.1523 18.885C25.0923 19.125 25.1723 19.305 25.3923 19.445C25.5923 19.585 25.8323 19.645 26.0923 19.625C26.3323 19.625 26.5123 19.525 26.5923 19.325C26.8723 18.445 27.2723 17.405 27.7523 16.185C28.2523 14.965 28.6923 13.925 29.0723 13.065C29.3723 13.545 29.9923 13.785 30.9323 13.765C31.8723 13.745 33.0123 13.565 34.3323 13.245C35.6323 12.905 36.7123 12.565 37.5123 12.225C37.7723 12.105 37.8923 11.965 37.9323 11.765C37.9523 11.565 37.8723 11.405 37.7323 11.265C37.5723 11.145 37.3723 11.105 37.1123 11.165C36.3723 11.445 35.6123 11.685 34.8323 11.885C34.0523 12.085 33.3523 12.245 32.7123 12.345C32.0723 12.445 31.5123 12.485 31.0323 12.465C30.5523 12.445 30.4523 12.285 30.7323 12.005C31.3723 11.465 32.1723 11.045 33.1123 10.725C33.3923 10.605 33.5123 10.405 33.5123 10.145C33.4923 9.88499 33.3923 9.66499 33.1723 9.48499C32.9723 9.30499 32.7123 9.24499 32.4123 9.34499C32.0523 9.48499 31.6723 9.70499 31.2523 10.005C30.8323 10.285 30.5323 10.505 30.3323 10.665C30.3523 10.465 30.5723 9.98499 30.9923 9.24499C31.3923 8.48499 31.8323 7.72499 32.2923 6.94499C32.7523 6.18499 33.0723 5.66499 33.2323 5.38499C33.3323 5.24499 33.4123 5.14499 33.4723 5.10499C33.5323 5.06499 33.5923 5.02499 33.6523 5.02499C33.7123 5.00499 33.7923 4.96499 33.8723 4.90499C33.9323 4.84499 34.0323 4.72499 34.1323 4.52499ZM37.6345 9.56499C37.2745 10.005 36.8345 10.685 36.2945 11.585C35.7545 12.485 35.4945 13.325 35.5145 14.085C35.7345 15.145 36.2545 15.665 37.0945 15.645C37.9345 15.625 38.8745 15.325 39.9345 14.725C40.9945 14.125 41.9545 13.485 42.8345 12.785C43.7145 12.085 44.2945 11.585 44.6145 11.285C44.7945 11.085 44.8745 10.925 44.8345 10.765C44.7945 10.605 44.7145 10.505 44.5545 10.445C44.4145 10.385 44.2545 10.425 44.0945 10.525C44.0745 10.545 44.0345 10.585 43.9545 10.645C43.6745 10.865 43.1745 11.265 42.4345 11.805C41.6945 12.345 40.8945 12.865 40.0145 13.365C39.1345 13.865 38.3145 14.165 37.5945 14.265C37.1145 14.305 36.9145 14.125 36.9945 13.725C37.0545 13.325 37.2945 12.825 37.6745 12.245C38.0545 11.645 38.4545 11.065 38.8945 10.505C39.0545 10.245 39.0545 10.025 38.8945 9.80499C38.7345 9.60499 38.5345 9.46499 38.2745 9.40499C37.9945 9.34499 37.7945 9.38499 37.6345 9.56499ZM38.8145 8.34499C38.7345 8.70499 38.7545 8.92499 38.8745 8.98499C39.0545 9.02499 39.3345 8.92499 39.7145 8.64499C40.0945 8.38499 40.4545 8.06499 40.8145 7.68499C41.1545 7.32499 41.3745 7.00499 41.4745 6.76499C41.5345 6.54499 41.4545 6.40499 41.2345 6.32499C41.0345 6.24499 40.7945 6.20499 40.5345 6.22499C40.2745 6.22499 40.0745 6.28499 39.9545 6.36499C39.7145 6.54499 39.4745 6.84499 39.2745 7.22499C39.0545 7.62499 38.9145 8.00499 38.8145 8.34499ZM44.2612 9.46499C43.3212 11.045 42.5412 12.505 41.9212 13.885C41.8212 14.165 41.8412 14.405 41.9812 14.625C42.1212 14.825 42.3212 14.965 42.5412 15.045C42.7812 15.125 42.9812 15.085 43.1612 14.965C43.3612 14.765 43.7212 14.385 44.2412 13.845L45.6412 12.425C46.1212 11.945 46.5212 11.545 46.8412 11.265C47.1812 10.985 47.3212 10.905 47.3012 11.045C47.2412 11.205 47.1612 11.385 47.0612 11.605C46.8012 12.125 46.6012 12.685 46.4412 13.285C46.2812 13.885 46.3812 14.305 46.7812 14.565C47.4412 14.845 48.3412 14.665 49.4612 14.085C50.5812 13.485 51.5812 12.845 52.5012 12.125C52.7212 11.945 52.8212 11.765 52.8212 11.565C52.8012 11.365 52.7212 11.225 52.5612 11.125C52.4012 11.045 52.2012 11.065 51.9812 11.225C51.9612 11.225 51.9412 11.245 51.9412 11.245C51.7212 11.405 51.3612 11.665 50.8212 12.025C50.3012 12.385 49.7612 12.705 49.2012 12.985C48.6412 13.265 48.2212 13.365 47.9212 13.285C47.8412 13.245 47.8612 13.045 48.0212 12.725C48.1612 12.405 48.3412 12.045 48.5612 11.625L49.0012 10.785C49.1212 10.525 49.2012 10.325 49.2412 10.165C49.2812 9.96499 49.2212 9.74499 49.0812 9.54499C48.9412 9.32499 48.7812 9.16499 48.5612 9.04499C48.3612 8.92499 48.1612 8.88499 47.9812 8.94499C47.7612 9.04499 47.4012 9.30499 46.9212 9.70499C46.4412 10.085 45.9612 10.505 45.5012 10.925C45.0212 11.345 44.7012 11.645 44.5012 11.845C44.5012 11.765 44.5612 11.645 44.6612 11.465C44.7812 11.305 44.9212 11.105 45.0812 10.865C45.2212 10.685 45.3612 10.465 45.5012 10.265C45.6212 10.065 45.6012 9.86499 45.4612 9.64499C45.3012 9.44499 45.1012 9.30499 44.8612 9.24499C44.6212 9.18499 44.4212 9.26499 44.2612 9.46499ZM48.8526 25.825C49.6726 24.825 50.4726 23.725 51.2326 22.525C51.9126 21.485 52.4326 20.745 52.8326 20.345L53.9526 19.265C56.4126 16.785 59.4526 14.125 63.0726 11.265C63.3126 11.065 63.4326 10.825 63.4126 10.545C63.4126 10.285 63.3326 10.065 63.1726 9.90499C63.0126 9.74499 62.8326 9.74499 62.6126 9.90499C60.6126 11.525 58.8926 13.005 57.4726 14.345C56.4526 15.265 55.6926 15.925 55.1526 16.365C55.3326 16.085 55.6726 15.465 56.1526 14.485C56.6326 13.525 57.0326 12.525 57.3726 11.485C57.7126 10.445 57.7526 9.68499 57.5126 9.22499C57.3926 9.04499 57.2326 8.96499 57.0526 8.98499C56.8526 9.00499 56.6726 9.06499 56.5126 9.18499L56.1526 9.42499C56.1326 9.42499 56.1326 9.44499 56.1126 9.44499C56.0126 9.38499 55.8926 9.26499 55.7726 9.10499C55.6726 8.98499 55.5726 8.86499 55.4526 8.74499C55.3326 8.64499 55.1926 8.58499 55.0326 8.58499C54.6126 8.62499 54.0526 8.94499 53.3726 9.54499C52.6726 10.165 52.0126 10.845 51.3726 11.625C50.7126 12.405 50.2126 13.065 49.8926 13.625C49.5326 14.245 49.3926 14.765 49.4526 15.185C49.5326 15.605 49.8326 15.765 50.3526 15.645C50.7126 15.525 51.2126 15.205 51.8326 14.685C52.4526 14.165 53.0926 13.585 53.7726 12.945C54.7326 12.045 55.5326 11.345 56.1726 10.885C55.8326 12.145 55.3726 13.285 54.8126 14.305C54.2326 15.325 53.5726 16.345 52.8526 17.405C52.7326 17.585 52.5926 17.785 52.4726 17.985C51.9726 18.665 51.2726 19.445 50.3926 20.305C49.4326 21.225 48.4726 22.285 47.4926 23.485C47.2126 23.905 47.1326 24.365 47.2726 24.825C47.3926 25.305 47.6126 25.645 47.9326 25.885C48.2526 26.125 48.5726 26.105 48.8526 25.825Z" fill="#3E3E3E"/>
</svg>
