<svg width="10" height="9" viewBox="0 0 10 9" fill="none" xmlns="http://www.w3.org/2000/svg">
<path d="M5.00001 0.142853C4.15238 0.142853 3.32378 0.394206 2.619 0.865126C1.91421 1.33605 1.3649 2.00538 1.04053 2.7885C0.716151 3.57161 0.63128 4.43332 0.796645 5.26467C0.96201 6.09601 1.37019 6.85966 1.96955 7.45902C2.56892 8.05839 3.33256 8.46657 4.16391 8.63193C4.99526 8.7973 5.85697 8.71243 6.64008 8.38805C7.42319 8.06367 8.09253 7.51436 8.56345 6.80958C9.03437 6.1048 9.28572 5.2762 9.28572 4.42857C9.28572 3.29192 8.83419 2.20184 8.03047 1.39811C7.22674 0.594382 6.13665 0.142853 5.00001 0.142853ZM5.00001 6.99999C4.49143 6.99999 3.99427 6.84918 3.5714 6.56663C3.14853 6.28408 2.81895 5.88248 2.62432 5.41261C2.42969 4.94274 2.37877 4.42571 2.47799 3.92691C2.57721 3.4281 2.82211 2.96991 3.18174 2.61029C3.54136 2.25067 3.99954 2.00577 4.49835 1.90655C4.99716 1.80733 5.51419 1.85825 5.98405 2.05288C6.45392 2.2475 6.85552 2.57709 7.13808 2.99996C7.42063 3.42283 7.57144 3.91999 7.57144 4.42857C7.57076 5.11034 7.29962 5.764 6.81753 6.24609C6.33544 6.72818 5.68179 6.99931 5.00001 6.99999Z" fill="#FF9900"/>
</svg>
