<svg width="30" height="31" viewBox="0 0 30 31" fill="none" xmlns="http://www.w3.org/2000/svg">
<path d="M14.9998 0.785645C12.0684 0.785645 9.20284 1.65491 6.76547 3.28351C4.3281 4.91211 2.4284 7.22689 1.3066 9.93516C0.184803 12.6434 -0.108711 15.6235 0.463177 18.4986C1.03507 21.3737 2.44667 24.0146 4.51948 26.0874C6.5923 28.1602 9.23322 29.5718 12.1083 30.1437C14.9834 30.7156 17.9635 30.4221 20.6717 29.3003C23.38 28.1785 25.6948 26.2788 27.3234 23.8414C28.952 21.404 29.8212 18.5385 29.8212 15.6071C29.8212 11.6762 28.2597 7.9063 25.4801 5.12674C22.7006 2.34718 18.9307 0.785645 14.9998 0.785645ZM14.9998 24.4999C13.241 24.4999 11.5216 23.9784 10.0592 23.0012C8.59678 22.024 7.45696 20.6352 6.78389 19.0102C6.11081 17.3853 5.9347 15.5972 6.27783 13.8722C6.62096 12.1471 7.46793 10.5626 8.71161 9.31887C9.9553 8.07518 11.5399 7.22822 13.2649 6.88509C14.9899 6.54195 16.778 6.71806 18.403 7.39114C20.0279 8.06422 21.4168 9.20404 22.394 10.6665C23.3711 12.1289 23.8927 13.8482 23.8927 15.6071C23.8903 17.9649 22.9526 20.2254 21.2854 21.8927C19.6182 23.5599 17.3576 24.4976 14.9998 24.4999Z" fill="#FF9900"/>
</svg>
