<svg width="84" height="83" viewBox="0 0 84 83" fill="none" xmlns="http://www.w3.org/2000/svg">
<path d="M42 0C33.7921 0 25.7685 2.43393 18.9438 6.99401C12.1192 11.5541 6.80005 18.0355 3.65902 25.6186C0.517981 33.2018 -0.303857 41.546 1.29743 49.5962C2.89872 57.6464 6.85121 65.041 12.6551 70.8449C18.459 76.6488 25.8536 80.6013 33.9038 82.2026C41.954 83.8039 50.2982 82.982 57.8814 79.841C65.4645 76.6999 71.9459 71.3808 76.506 64.5562C81.0661 57.7315 83.5 49.7079 83.5 41.5C83.4874 30.4974 79.1111 19.949 71.3311 12.1689C63.551 4.38889 53.0026 0.0125529 42 0V0ZM24.2143 72.2604V68.1786C24.2167 65.8207 25.1543 63.5602 26.8216 61.893C28.4888 60.2257 30.7493 59.2881 33.1072 59.2857H50.8929C53.2507 59.2881 55.5112 60.2257 57.1785 61.893C58.8457 63.5602 59.7834 65.8207 59.7857 68.1786V72.2604C54.3883 75.412 48.2503 77.0728 42 77.0728C35.7498 77.0728 29.6118 75.412 24.2143 72.2604V72.2604ZM65.6906 67.9592C65.6315 64.071 64.0474 60.3617 61.2795 57.6304C58.5116 54.8991 54.7815 53.3645 50.8929 53.3571H33.1072C29.2186 53.3645 25.4885 54.8991 22.7206 57.6304C19.9527 60.3617 18.3685 64.071 18.3094 67.9592C12.9339 63.1593 9.14307 56.8398 7.43892 49.8375C5.73476 42.8353 6.19767 35.4805 8.76634 28.7472C11.335 22.0139 15.8883 16.2196 21.8232 12.1315C27.7582 8.04349 34.7948 5.85454 42.0015 5.85454C49.2081 5.85454 56.2448 8.04349 62.1798 12.1315C68.1147 16.2196 72.668 22.0139 75.2366 28.7472C77.8053 35.4805 78.2682 42.8353 76.5641 49.8375C74.8599 56.8398 71.0691 63.1593 65.6935 67.9592H65.6906Z" fill="#FF9900"/>
</svg>
