<svg width="97" height="24" viewBox="0 0 97 24" fill="none" xmlns="http://www.w3.org/2000/svg">
<path d="M17.1191 7.06501H12.1891V22.875H5.38905V7.06501H0.459045V1.62502H17.1191V7.06501ZM18.9891 5.87502H22.3891L24.2591 7.77901C25.5964 6.55501 27.2737 5.75032 29.2911 5.36502L29.6991 11.791C29.1551 11.8137 28.4411 11.9497 27.5571 12.199C26.6957 12.4483 26.1064 12.7657 25.7891 13.151V22.875H18.9891V5.87502ZM39.7971 5.36502C45.2371 5.36502 47.9571 7.23501 47.9571 10.975V22.875H44.5571L42.6191 20.937C41.9617 21.7077 41.0664 22.3083 39.9331 22.739C38.7997 23.1697 37.7231 23.385 36.7031 23.385C35.7057 23.385 34.9011 23.3057 34.2891 23.147C33.6771 22.9883 33.0764 22.7163 32.4871 22.331C31.1951 21.515 30.5491 19.9963 30.5491 17.775C30.5491 13.695 33.6317 11.655 39.7971 11.655H41.1571V10.431C40.4317 10.3857 39.8311 10.363 39.3551 10.363C36.7937 10.363 34.5951 10.669 32.7591 11.281L31.9431 6.41901C34.2097 5.71631 36.8277 5.36502 39.7971 5.36502ZM37.4171 17.027V18.421H38.8111C39.8084 18.421 40.4431 18.3077 40.7151 18.081C41.0097 17.8543 41.1571 17.5597 41.1571 17.197V15.599H39.7631C38.9471 15.599 38.3464 15.6897 37.9611 15.871C37.5984 16.0297 37.4171 16.415 37.4171 17.027ZM53.5801 22.875L49.3301 5.87502H56.1301L58.0001 16.925H58.3401L60.2101 5.87502H67.0101L62.7601 22.875H53.5801ZM75.3241 17.095V18.285C76.0041 18.353 76.6841 18.387 77.3641 18.387C79.4721 18.387 81.6028 18.047 83.7561 17.367L84.5721 22.365C82.0335 23.045 79.5175 23.385 77.0241 23.385C73.8508 23.385 71.5501 22.6483 70.1221 21.175C68.7168 19.679 68.0141 17.4123 68.0141 14.375C68.0141 11.3377 68.7168 9.08232 70.1221 7.60902C71.5501 6.11302 73.8395 5.36502 76.9901 5.36502C80.1635 5.36502 82.3508 5.79572 83.5521 6.65702C84.7535 7.51832 85.3541 9.12772 85.3541 11.485C85.3541 13.4797 84.6288 14.919 83.1781 15.803C81.7501 16.6643 79.1321 17.095 75.3241 17.095ZM75.3241 11.757V13.151H76.7181C77.5341 13.151 78.1235 13.0717 78.4861 12.913C78.8715 12.7317 79.0641 12.335 79.0641 11.723V10.329H77.6701C76.8541 10.329 76.2535 10.4197 75.8681 10.601C75.5055 10.7597 75.3241 11.145 75.3241 11.757ZM94.7188 0.265015V18.013C95.4441 18.149 95.9994 18.2283 96.3848 18.251L96.0788 23.249C93.1774 23.249 91.2621 23.079 90.3328 22.739C89.1768 22.3083 88.4628 21.7643 88.1908 21.107C88.0094 20.699 87.9188 20.223 87.9188 19.679V0.775017L94.7188 0.265015Z" fill="#FF9900"/>
</svg>
