<svg width="30" height="31" viewBox="0 0 30 31" fill="none" xmlns="http://www.w3.org/2000/svg">
<path d="M14.9998 0.785706C12.0684 0.785706 9.20287 1.65497 6.7655 3.28357C4.32813 4.91217 2.42842 7.22696 1.30663 9.93522C0.184828 12.6435 -0.108686 15.6236 0.463202 18.4986C1.03509 21.3737 2.4467 24.0146 4.51951 26.0875C6.59232 28.1603 9.23325 29.5719 12.1083 30.1438C14.9834 30.7157 17.9635 30.4221 20.6718 29.3003C23.38 28.1785 25.6948 26.2788 27.3234 23.8415C28.952 21.4041 29.8213 18.5385 29.8213 15.6071C29.8213 11.6762 28.2597 7.90636 25.4802 5.1268C22.7006 2.34724 18.9307 0.785706 14.9998 0.785706ZM14.9998 24.5C13.241 24.5 11.5217 23.9784 10.0592 23.0013C8.59681 22.0241 7.45699 20.6352 6.78391 19.0103C6.11083 17.3853 5.93472 15.5973 6.27786 13.8722C6.62099 12.1472 7.46795 10.5626 8.71164 9.31893C9.95533 8.07524 11.5399 7.22828 13.2649 6.88515C14.99 6.54202 16.778 6.71812 18.403 7.3912C20.0279 8.06428 21.4168 9.2041 22.394 10.6665C23.3711 12.1289 23.8927 13.8483 23.8927 15.6071C23.8903 17.9649 22.9527 20.2255 21.2854 21.8927C19.6182 23.56 17.3576 24.4976 14.9998 24.5Z" fill="#FF9900"/>
</svg>
